# xmcd
#
# Track frame offsets: 
#        150
#        19081
#        32737
#        49346
#        64817
#        84332
#        100280
#        110295
#        123666
#        135283
#        146428
#        159794
#        174362
#        189480
#        198675
#        211514
#
# Disc length: 2985 seconds
#
# Revision: 4
# Processed by: cddbd v1.5.2PL0 Copyright (c) Steve Scherf et al.
# Submitted via: ExactAudioCopy v1.0b6
#
DISCID=d10ba710
DTITLE=Schlager der 60er,70er,80er - Die besten Schlager der 60'er, 70
DTITLE='er und 80'er CD3
DYEAR=2001
DGENRE=Schlager
TTITLE0=Frank Farian - Rocky (Chartposition 1-76)
TTITLE1=Lena Valaitis - Johnny Blue (Chartposition 9-81)
TTITLE2=Hoffmann and Hoffmann - Himbeereis zum Frühstück (Chartposition 
TTITLE2=14-77)
TTITLE3=Juliane Werding - Am Tag, als Connie Kramer starb (Chartpositi
TTITLE3=on 1-71)
TTITLE4=Peter Cornelius - Du entschuldige, I kenn' di (Chartposition 8
TTITLE4=80)
TTITLE5=Katja Ebstein - Wunder gibt es immer wieder (Chartposition 16-
TTITLE5=70)
TTITLE6=Tahiti Tamoures - Wini-Wini (Chartposition 1-63)
TTITLE7=Mina - Heißer Sand (Chartposition 1-62)
TTITLE8=Dorthe - Wärst du doch in Düsseldorf geblieben (Chartposition 
TTITLE8=10-68)
TTITLE9=Siw Malmkvist - Liebeskummer lohnt sich nicht (Chartposition 1
TTITLE9=64)
TTITLE10=Old Merry Tale Jazzband - Am Sonntag will mein Süßer mit mir 
TTITLE10=segeln geh'n (Chartposition 4-64)
TTITLE11=Chris Roberts - Hab' ich dir heute schon gesagt, daß ich dich
TTITLE11=liebe (Chartposition 1-71)
TTITLE12=Daliah Lavi - Oh, wann kommst du? (Chartposition 4-70)
TTITLE13=Connie Francis - Barcarole in der Nacht (Chartposition 1-63)
TTITLE14=Dorthe - Sind Sie der Graf von Luxemburg? (Chartposition 25-6
TTITLE14=8)
TTITLE15=Bill Ramsey - Pigalle (Die große Mausefalle) (Chartposition 1
TTITLE15=61)
EXTD=
EXTT0=
EXTT1=
EXTT2=
EXTT3=
EXTT4=
EXTT5=
EXTT6=
EXTT7=
EXTT8=
EXTT9=
EXTT10=
EXTT11=
EXTT12=
EXTT13=
EXTT14=
EXTT15=
PLAYORDER=
